<svg width="80" height="80" viewBox="0 0 80 80" fill="none" xmlns="http://www.w3.org/2000/svg">
<path fill-rule="evenodd" clip-rule="evenodd" d="M26.3333 76.6666H53.6666C54.6666 76.6666 55.6666 76.3333 55.9999 76L75.6666 56.3333C76.3332 55.6666 76.6666 55 76.6666 54V26.3333C76.6666 25.3333 76.3332 24.3333 75.9999 24L56.3332 4.33331C55.6666 3.66665 54.9999 3.33331 53.9999 3.33331H26.3333C25.3333 3.33331 24.3333 3.66665 23.9999 4.33331L4.33325 24C3.66659 24.6666 3.33325 25.3333 3.33325 26.3333V53.6666C3.33325 54.6666 3.66659 55.6666 4.33325 56L23.9999 75.6666C24.6666 76.3333 25.3333 76.6666 26.3333 76.6666ZM52.6666 70H27.6666L9.99992 52.6666V27.6666L27.6666 9.99998H52.3333L70.3333 27.6666V52.3333L52.6666 70ZM43.3333 40V26.6666C43.3333 24.6666 41.9999 23.3333 39.9999 23.3333C37.9999 23.3333 36.6666 24.6666 36.6666 26.6666V40C36.6666 42 37.9999 43.3333 39.9999 43.3333C41.9999 43.3333 43.3333 42 43.3333 40ZM42.9999 54.6666C42.9999 55 42.6666 55.3333 42.3333 55.6666C41.6666 56.3333 40.9999 56.6666 39.6666 56.6666C38.6666 56.6666 37.9999 56.3333 37.3333 55.6666C36.6666 55 36.3333 54.3333 36.3333 53.3333C36.3333 52.9428 36.4476 52.6666 36.5424 52.4379C36.6094 52.2761 36.6666 52.1381 36.6666 52C36.6666 51.6666 36.9999 51.3333 37.3333 51C38.3333 50 39.6666 49.6666 40.9999 50.3333C41.1666 50.3333 41.2499 50.4166 41.3333 50.5C41.4166 50.5833 41.4999 50.6666 41.6666 50.6666C41.9999 50.6666 42.3333 51 42.3333 51C42.4999 51.1666 42.5832 51.3333 42.6666 51.5C42.7499 51.6666 42.8333 51.8333 42.9999 52C43.3333 52.3333 43.3333 53 43.3333 53.3333C43.3333 53.5 43.2499 53.75 43.1666 54C43.0833 54.25 42.9999 54.5 42.9999 54.6666Z" fill="black"/>
<mask id="mask0_3813_143127" style="mask-type:alpha" maskUnits="userSpaceOnUse" x="3" y="3" width="74" height="74">
<path fill-rule="evenodd" clip-rule="evenodd" d="M26.3333 76.6666H53.6666C54.6666 76.6666 55.6666 76.3333 55.9999 76L75.6666 56.3333C76.3332 55.6666 76.6666 55 76.6666 54V26.3333C76.6666 25.3333 76.3332 24.3333 75.9999 24L56.3332 4.33331C55.6666 3.66665 54.9999 3.33331 53.9999 3.33331H26.3333C25.3333 3.33331 24.3333 3.66665 23.9999 4.33331L4.33325 24C3.66659 24.6666 3.33325 25.3333 3.33325 26.3333V53.6666C3.33325 54.6666 3.66659 55.6666 4.33325 56L23.9999 75.6666C24.6666 76.3333 25.3333 76.6666 26.3333 76.6666ZM52.6666 70H27.6666L9.99992 52.6666V27.6666L27.6666 9.99998H52.3333L70.3333 27.6666V52.3333L52.6666 70ZM43.3333 40V26.6666C43.3333 24.6666 41.9999 23.3333 39.9999 23.3333C37.9999 23.3333 36.6666 24.6666 36.6666 26.6666V40C36.6666 42 37.9999 43.3333 39.9999 43.3333C41.9999 43.3333 43.3333 42 43.3333 40ZM42.9999 54.6666C42.9999 55 42.6666 55.3333 42.3333 55.6666C41.6666 56.3333 40.9999 56.6666 39.6666 56.6666C38.6666 56.6666 37.9999 56.3333 37.3333 55.6666C36.6666 55 36.3333 54.3333 36.3333 53.3333C36.3333 52.9428 36.4476 52.6666 36.5424 52.4379C36.6094 52.2761 36.6666 52.1381 36.6666 52C36.6666 51.6666 36.9999 51.3333 37.3333 51C38.3333 50 39.6666 49.6666 40.9999 50.3333C41.1666 50.3333 41.2499 50.4166 41.3333 50.5C41.4166 50.5833 41.4999 50.6666 41.6666 50.6666C41.9999 50.6666 42.3333 51 42.3333 51C42.4999 51.1666 42.5832 51.3333 42.6666 51.5C42.7499 51.6666 42.8333 51.8333 42.9999 52C43.3333 52.3333 43.3333 53 43.3333 53.3333C43.3333 53.5 43.2499 53.75 43.1666 54C43.0833 54.25 42.9999 54.5 42.9999 54.6666Z" fill="white"/>
</mask>
<g mask="url(#mask0_3813_143127)">
<rect width="80" height="80" fill="#B50938"/>
</g>
</svg>
