<svg width="80" height="80" viewBox="0 0 80 80" fill="none" xmlns="http://www.w3.org/2000/svg">
<path fill-rule="evenodd" clip-rule="evenodd" d="M3.33337 40C3.33337 60.3334 19.6667 76.6667 40 76.6667C60.3334 76.6667 76.6667 60.3334 76.6667 40C76.6667 19.6667 60.3334 3.33337 40 3.33337C19.6667 3.33337 3.33337 19.6667 3.33337 40ZM10 40C10 23.3334 23.3334 10 40 10C56.6667 10 70 23.3334 70 40C70 56.6667 56.6667 70 40 70C23.3334 70 10 56.6667 10 40ZM43.3334 40V26.6667C43.3334 24.6667 42 23.3334 40 23.3334C38 23.3334 36.6667 24.6667 36.6667 26.6667V40C36.6667 42 38 43.3334 40 43.3334C42 43.3334 43.3334 42 43.3334 40ZM43 54.6667C43 55 42.6667 55.3334 42.3334 55.6667C41.6667 56.3334 41 56.6667 39.6667 56.6667C38.6667 56.6667 38 56.3334 37.3334 55.6667C36.6667 55 36.3334 54.3334 36.3334 53.3334C36.3334 52.9428 36.4478 52.6667 36.5425 52.4379C36.6095 52.2762 36.6667 52.1381 36.6667 52C36.6667 51.6667 37 51.3334 37.3334 51C38.3334 50 39.6667 49.6667 41 50.3334C41.1667 50.3334 41.25 50.4167 41.3334 50.5C41.4167 50.5834 41.5 50.6667 41.6667 50.6667C42 50.6667 42.3334 51 42.3334 51C42.5 51.1667 42.5834 51.3334 42.6667 51.5C42.75 51.6667 42.8334 51.8334 43 52C43.3334 52.3334 43.3334 53 43.3334 53.3334C43.3334 53.5 43.25 53.75 43.1667 54C43.0834 54.25 43 54.5 43 54.6667Z" fill="black"/>
<mask id="mask0_3813_143111" style="mask-type:alpha" maskUnits="userSpaceOnUse" x="3" y="3" width="74" height="74">
<path fill-rule="evenodd" clip-rule="evenodd" d="M3.33337 40C3.33337 60.3334 19.6667 76.6667 40 76.6667C60.3334 76.6667 76.6667 60.3334 76.6667 40C76.6667 19.6667 60.3334 3.33337 40 3.33337C19.6667 3.33337 3.33337 19.6667 3.33337 40ZM10 40C10 23.3334 23.3334 10 40 10C56.6667 10 70 23.3334 70 40C70 56.6667 56.6667 70 40 70C23.3334 70 10 56.6667 10 40ZM43.3334 40V26.6667C43.3334 24.6667 42 23.3334 40 23.3334C38 23.3334 36.6667 24.6667 36.6667 26.6667V40C36.6667 42 38 43.3334 40 43.3334C42 43.3334 43.3334 42 43.3334 40ZM43 54.6667C43 55 42.6667 55.3334 42.3334 55.6667C41.6667 56.3334 41 56.6667 39.6667 56.6667C38.6667 56.6667 38 56.3334 37.3334 55.6667C36.6667 55 36.3334 54.3334 36.3334 53.3334C36.3334 52.9428 36.4478 52.6667 36.5425 52.4379C36.6095 52.2762 36.6667 52.1381 36.6667 52C36.6667 51.6667 37 51.3334 37.3334 51C38.3334 50 39.6667 49.6667 41 50.3334C41.1667 50.3334 41.25 50.4167 41.3334 50.5C41.4167 50.5834 41.5 50.6667 41.6667 50.6667C42 50.6667 42.3334 51 42.3334 51C42.5 51.1667 42.5834 51.3334 42.6667 51.5C42.75 51.6667 42.8334 51.8334 43 52C43.3334 52.3334 43.3334 53 43.3334 53.3334C43.3334 53.5 43.25 53.75 43.1667 54C43.0834 54.25 43 54.5 43 54.6667Z" fill="white"/>
</mask>
<g mask="url(#mask0_3813_143111)">
<rect width="80" height="80" fill="#FF9F43"/>
</g>
</svg>
