<svg width="80" height="80" viewBox="0 0 80 80" fill="none" xmlns="http://www.w3.org/2000/svg">
<path d="M62 65H70V71.6667H50V51.6667H56.6666V60.7667C62.7666 55.8667 66.6666 48.4 66.6666 40C66.6666 26.4334 56.4666 15.2 43.3333 13.5667V6.83337C60.1666 8.50004 73.3333 22.7 73.3333 40C73.3333 49.9667 68.9333 58.9 62 65ZM13.3333 40C13.3333 31.6 17.2333 24.1 23.3333 19.2334V28.3334H30V8.33337H9.99996V15H18C14.4386 18.119 11.5851 21.9631 9.63045 26.2748C7.67583 30.5864 6.66532 35.266 6.66663 40C6.66663 57.3 19.8333 71.5 36.6666 73.1667V66.4334C23.5333 64.8 13.3333 53.5667 13.3333 40ZM54.1333 27.0334L35.2666 45.9L25.8333 36.4667L21.1333 41.1667L35.2666 55.3L58.8333 31.7334L54.1333 27.0334Z" fill="#00BABA"/>
</svg>
