<svg width="14" height="14" viewBox="0 0 14 14" fill="none" xmlns="http://www.w3.org/2000/svg">
<path d="M10.9082 5.65829L7.40817 9.15829C7.2915 9.27496 7.17484 9.33329 6.99984 9.33329C6.82484 9.33329 6.70817 9.27496 6.5915 9.15829L3.0915 5.65829C2.85817 5.42496 2.85817 5.07496 3.0915 4.84163C3.32484 4.60829 3.67484 4.60829 3.90817 4.84163L6.99984 7.93329L10.0915 4.84163C10.3248 4.60829 10.6748 4.60829 10.9082 4.84163C11.1415 5.07496 11.1415 5.42496 10.9082 5.65829Z" fill="black"/>
<mask id="mask0_3835_83188" style="mask-type:alpha" maskUnits="userSpaceOnUse" x="2" y="4" width="10" height="6">
<path d="M10.9082 5.65829L7.40817 9.15829C7.2915 9.27496 7.17484 9.33329 6.99984 9.33329C6.82484 9.33329 6.70817 9.27496 6.5915 9.15829L3.0915 5.65829C2.85817 5.42496 2.85817 5.07496 3.0915 4.84163C3.32484 4.60829 3.67484 4.60829 3.90817 4.84163L6.99984 7.93329L10.0915 4.84163C10.3248 4.60829 10.6748 4.60829 10.9082 4.84163C11.1415 5.07496 11.1415 5.42496 10.9082 5.65829Z" fill="white"/>
</mask>
<g mask="url(#mask0_3835_83188)">
<rect width="14" height="14" fill="#ACB1B7"/>
</g>
</svg>
