<svg width="14" height="14" viewBox="0 0 14 14" fill="none" xmlns="http://www.w3.org/2000/svg">
<path d="M10.9082 9.15829C10.7915 9.27496 10.6748 9.33329 10.4998 9.33329C10.3248 9.33329 10.2082 9.27496 10.0915 9.15829L6.99984 6.06663L3.90817 9.15829C3.67484 9.39163 3.32484 9.39163 3.0915 9.15829C2.85817 8.92496 2.85817 8.57496 3.0915 8.34163L6.5915 4.84163C6.82484 4.60829 7.17484 4.60829 7.40817 4.84163L10.9082 8.34163C11.1415 8.57496 11.1415 8.92496 10.9082 9.15829Z" fill="black"/>
<mask id="mask0_3835_150008" style="mask-type:alpha" maskUnits="userSpaceOnUse" x="2" y="4" width="10" height="6">
<path d="M10.9082 9.15829C10.7915 9.27496 10.6748 9.33329 10.4998 9.33329C10.3248 9.33329 10.2082 9.27496 10.0915 9.15829L6.99984 6.06663L3.90817 9.15829C3.67484 9.39163 3.32484 9.39163 3.0915 9.15829C2.85817 8.92496 2.85817 8.57496 3.0915 8.34163L6.5915 4.84163C6.82484 4.60829 7.17484 4.60829 7.40817 4.84163L10.9082 8.34163C11.1415 8.57496 11.1415 8.92496 10.9082 9.15829Z" fill="white"/>
</mask>
<g mask="url(#mask0_3835_150008)">
<rect width="14" height="14" fill="#ACB1B7"/>
</g>
</svg>
