<svg width="12" height="13" viewBox="0 0 12 13" fill="none" xmlns="http://www.w3.org/2000/svg">
<path fill-rule="evenodd" clip-rule="evenodd" d="M11.2652 1.23483C11.4116 1.38128 11.4116 1.61872 11.2652 1.76517L7.42828 5.60205C7.96371 6.3267 8.04229 7.28073 7.58853 8.32851C7.40521 8.75182 7.02242 9.55936 6.62057 10.2524C6.42081 10.597 6.20786 10.9281 6.00559 11.1708C5.90553 11.2909 5.79511 11.4053 5.67794 11.4882C5.57185 11.5633 5.38863 11.6632 5.17143 11.6167C3.31708 11.2193 2.18053 10.2206 1.51117 9.31696C1.17798 8.86716 0.961115 8.44206 0.826959 8.12763C0.759791 7.97021 0.713067 7.83985 0.682687 7.74708L0.63671 7.59298L0.636418 7.59183C0.627727 7.55707 0.623965 7.52096 0.625247 7.48623C0.625083 7.48251 0.625 7.47877 0.625 7.47501C0.625 7.43661 0.633655 7.40024 0.649119 7.36774C0.672055 7.30688 0.71084 7.25185 0.7633 7.20914L0.770643 7.20318L0.791621 7.18617C0.80997 7.17131 0.836883 7.14955 0.871371 7.12179C0.940339 7.06626 1.03963 6.98667 1.16132 6.89008C1.40456 6.69702 1.73788 6.43558 2.09761 6.16259C2.45685 5.88997 2.84497 5.60389 3.19725 5.36234C3.54182 5.12607 3.87639 4.91532 4.1202 4.80973C5.00566 4.42627 6.13174 4.53668 6.89438 5.07529L10.7348 1.23483C10.8813 1.08839 11.1187 1.08839 11.2652 1.23483ZM1.43604 7.63024C1.45748 7.68857 1.48417 7.75685 1.51679 7.8333C1.63264 8.10481 1.82202 8.47659 2.11383 8.87054C2.68593 9.64287 3.65391 10.5049 5.25634 10.8674C5.29677 10.8364 5.35496 10.7801 5.42939 10.6907C5.59091 10.4969 5.77882 10.209 5.97175 9.87624C6.26929 9.36307 6.55866 8.77851 6.75519 8.35347C5.97477 7.95887 5.44247 7.66172 5.03622 7.26035C4.63611 6.86504 4.37377 6.38584 4.07902 5.68222C3.94583 5.76339 3.79146 5.86427 3.62138 5.98089C3.2831 6.21285 2.90563 6.49091 2.551 6.76003C2.19687 7.02878 1.86803 7.28669 1.62759 7.47753C1.55506 7.5351 1.49063 7.58652 1.43604 7.63024ZM4.76778 5.38487C5.05226 6.06398 5.2658 6.43286 5.56334 6.72683C5.87281 7.03258 6.28947 7.27513 7.03709 7.65529C7.26526 6.87692 7.07947 6.27493 6.65227 5.84773C6.22582 5.42113 5.45316 5.23085 4.76778 5.38487ZM5.22217 10.8898C5.22217 10.8898 5.22391 10.8887 5.22718 10.8874L5.22438 10.8889C5.22287 10.8896 5.22217 10.8898 5.22217 10.8898Z" fill="#99CF16"/>
</svg>
