<svg width="80" height="80" viewBox="0 0 80 80" fill="none" xmlns="http://www.w3.org/2000/svg">
<path fill-rule="evenodd" clip-rule="evenodd" d="M38.6667 56.3334C38.3334 56.3334 38.0001 56 37.6667 55.6667L24.3334 42.3334C23.0001 41 23.0001 39 24.3334 37.6667C25.6667 36.3334 27.6667 36.3334 29.0001 37.6667L36.6667 45.3334V6.66671C36.6667 4.66671 38.0001 3.33337 40.0001 3.33337C42.0001 3.33337 43.3334 4.66671 43.3334 6.66671V45.3334L51.0001 37.6667C52.3334 36.3334 54.3334 36.3334 55.6668 37.6667C57.0001 39 57.0001 41 55.6668 42.3334L42.3334 55.6667C42.1667 55.8334 42.0001 55.9167 41.8334 56C41.6667 56.0834 41.5001 56.1667 41.3334 56.3334C41.0001 56.6667 40.3334 56.6667 40.0001 56.6667C39.6668 56.6667 39.0001 56.6667 38.6667 56.3334ZM73.3334 66.6667V56.6667C73.3334 54.6667 72.0001 53.3334 70.0001 53.3334C68.0001 53.3334 66.6668 54.6667 66.6668 56.6667V66.6667C66.6668 68.6667 65.3334 70 63.3334 70H16.6667C14.6667 70 13.3334 68.6667 13.3334 66.6667V56.6667C13.3334 54.6667 12.0001 53.3334 10.0001 53.3334C8.00008 53.3334 6.66675 54.6667 6.66675 56.6667V66.6667C6.66675 72.3334 11.0001 76.6667 16.6667 76.6667H63.3334C69.0001 76.6667 73.3334 72.3334 73.3334 66.6667Z" fill="black"/>
<mask id="mask0_3813_144347" style="mask-type:alpha" maskUnits="userSpaceOnUse" x="6" y="3" width="68" height="74">
<path fill-rule="evenodd" clip-rule="evenodd" d="M38.6667 56.3334C38.3334 56.3334 38.0001 56 37.6667 55.6667L24.3334 42.3334C23.0001 41 23.0001 39 24.3334 37.6667C25.6667 36.3334 27.6667 36.3334 29.0001 37.6667L36.6667 45.3334V6.66671C36.6667 4.66671 38.0001 3.33337 40.0001 3.33337C42.0001 3.33337 43.3334 4.66671 43.3334 6.66671V45.3334L51.0001 37.6667C52.3334 36.3334 54.3334 36.3334 55.6668 37.6667C57.0001 39 57.0001 41 55.6668 42.3334L42.3334 55.6667C42.1667 55.8334 42.0001 55.9167 41.8334 56C41.6667 56.0834 41.5001 56.1667 41.3334 56.3334C41.0001 56.6667 40.3334 56.6667 40.0001 56.6667C39.6668 56.6667 39.0001 56.6667 38.6667 56.3334ZM73.3334 66.6667V56.6667C73.3334 54.6667 72.0001 53.3334 70.0001 53.3334C68.0001 53.3334 66.6668 54.6667 66.6668 56.6667V66.6667C66.6668 68.6667 65.3334 70 63.3334 70H16.6667C14.6667 70 13.3334 68.6667 13.3334 66.6667V56.6667C13.3334 54.6667 12.0001 53.3334 10.0001 53.3334C8.00008 53.3334 6.66675 54.6667 6.66675 56.6667V66.6667C6.66675 72.3334 11.0001 76.6667 16.6667 76.6667H63.3334C69.0001 76.6667 73.3334 72.3334 73.3334 66.6667Z" fill="white"/>
</mask>
<g mask="url(#mask0_3813_144347)">
<rect width="80" height="80" fill="#00BABA"/>
</g>
</svg>
