<svg width="18" height="19" viewBox="0 0 18 19" fill="none" xmlns="http://www.w3.org/2000/svg">
<path d="M17.1749 8.45126C17.1749 8.52605 17.0997 8.52605 17.0997 8.60084C17.0997 8.60084 17.0997 8.67562 17.0246 8.67562V8.67562C16.9494 8.75041 16.9494 8.75041 16.8743 8.8252L16.7991 8.89998H16.724C16.6488 8.89998 16.5737 8.89998 16.5737 8.89998V8.89998H12.0649C11.614 8.89998 11.3134 8.60084 11.3134 8.15212C11.3134 7.7034 11.614 7.40426 12.0649 7.40426H14.695L12.5909 5.45982C11.9146 4.78674 11.1632 4.33802 10.3365 4.03888C8.83362 3.51537 7.1804 3.59016 5.75262 4.26324C4.17455 4.93631 3.1225 6.13289 2.59647 7.62862C1.46928 10.7696 3.1225 14.2098 6.2035 15.2568C9.35964 16.3786 12.7412 14.7333 13.8684 11.5923C14.0187 11.2184 14.4696 10.994 14.8453 11.1436C15.2211 11.2931 15.4465 11.7419 15.2962 12.1158C14.2441 15.182 11.3134 17.1265 8.23245 17.1265C7.40584 17.1265 6.57923 16.9769 5.75262 16.6777C1.84501 15.3316 -0.183939 10.994 1.16869 7.10511C2.52133 3.21623 6.87981 1.197 10.7874 2.54315C11.8395 2.91708 12.8164 3.51537 13.5678 4.33802L15.7471 6.43204V3.66495C15.7471 3.21623 16.0477 2.91708 16.4985 2.91708C16.9494 2.91708 17.25 3.21623 17.25 3.66495V8.15212C17.25 8.22691 17.25 8.22691 17.25 8.22691C17.25 8.30169 17.25 8.37648 17.1749 8.45126Z" fill="black"/>
<mask id="mask0_3835_122864" style="mask-type:alpha" maskUnits="userSpaceOnUse" x="0" y="2" width="18" height="16">
<path d="M17.1749 8.45126C17.1749 8.52605 17.0997 8.52605 17.0997 8.60084C17.0997 8.60084 17.0997 8.67562 17.0246 8.67562V8.67562C16.9494 8.75041 16.9494 8.75041 16.8743 8.8252L16.7991 8.89998H16.724C16.6488 8.89998 16.5737 8.89998 16.5737 8.89998V8.89998H12.0649C11.614 8.89998 11.3134 8.60084 11.3134 8.15212C11.3134 7.7034 11.614 7.40426 12.0649 7.40426H14.695L12.5909 5.45982C11.9146 4.78674 11.1632 4.33802 10.3365 4.03888C8.83362 3.51537 7.1804 3.59016 5.75262 4.26324C4.17455 4.93631 3.1225 6.13289 2.59647 7.62862C1.46928 10.7696 3.1225 14.2098 6.2035 15.2568C9.35964 16.3786 12.7412 14.7333 13.8684 11.5923C14.0187 11.2184 14.4696 10.994 14.8453 11.1436C15.2211 11.2931 15.4465 11.7419 15.2962 12.1158C14.2441 15.182 11.3134 17.1265 8.23245 17.1265C7.40584 17.1265 6.57923 16.9769 5.75262 16.6777C1.84501 15.3316 -0.183939 10.994 1.16869 7.10511C2.52133 3.21623 6.87981 1.197 10.7874 2.54315C11.8395 2.91708 12.8164 3.51537 13.5678 4.33802L15.7471 6.43204V3.66495C15.7471 3.21623 16.0477 2.91708 16.4985 2.91708C16.9494 2.91708 17.25 3.21623 17.25 3.66495V8.15212C17.25 8.22691 17.25 8.22691 17.25 8.22691C17.25 8.30169 17.25 8.37648 17.1749 8.45126Z" fill="white"/>
</mask>
<g mask="url(#mask0_3835_122864)">
<rect y="0.626465" width="18" height="18" fill="#576573"/>
</g>
</svg>
