<svg width="15" height="16" viewBox="0 0 15 16" fill="none" xmlns="http://www.w3.org/2000/svg">
<path fill-rule="evenodd" clip-rule="evenodd" d="M6.875 3.66353L5.4375 5.10267C5.1875 5.35295 4.8125 5.35295 4.5625 5.10267C4.3125 4.85238 4.3125 4.47696 4.5625 4.22667L7.0625 1.72383C7.09375 1.69254 7.125 1.6769 7.15625 1.66126C7.1875 1.64561 7.21875 1.62997 7.25 1.59869C7.4375 1.53612 7.625 1.53612 7.75 1.59869C7.8125 1.59869 7.875 1.66126 7.9375 1.72383L10.4375 4.22667C10.6875 4.47696 10.6875 4.85238 10.4375 5.10267C10.3125 5.22781 10.1875 5.29038 10 5.29038C9.8125 5.29038 9.6875 5.22781 9.5625 5.10267L8.125 3.66353V10.2961C8.125 10.6715 7.875 10.9218 7.5 10.9218C7.125 10.9218 6.875 10.6715 6.875 10.2961V3.66353ZM13.125 13.4246V8.41894C13.125 8.04352 12.875 7.79323 12.5 7.79323C12.125 7.79323 11.875 8.04352 11.875 8.41894V13.4246C11.875 13.8001 11.625 14.0503 11.25 14.0503H3.75C3.375 14.0503 3.125 13.8001 3.125 13.4246V8.41894C3.125 8.04352 2.875 7.79323 2.5 7.79323C2.125 7.79323 1.875 8.04352 1.875 8.41894V13.4246C1.875 14.4883 2.6875 15.3018 3.75 15.3018H11.25C12.3125 15.3018 13.125 14.4883 13.125 13.4246Z" fill="black"/>
<mask id="mask0_3813_143590" style="mask-type:alpha" maskUnits="userSpaceOnUse" x="1" y="1" width="13" height="15">
<path fill-rule="evenodd" clip-rule="evenodd" d="M6.875 3.66353L5.4375 5.10267C5.1875 5.35295 4.8125 5.35295 4.5625 5.10267C4.3125 4.85238 4.3125 4.47696 4.5625 4.22667L7.0625 1.72383C7.09375 1.69254 7.125 1.6769 7.15625 1.66126C7.1875 1.64561 7.21875 1.62997 7.25 1.59869C7.4375 1.53612 7.625 1.53612 7.75 1.59869C7.8125 1.59869 7.875 1.66126 7.9375 1.72383L10.4375 4.22667C10.6875 4.47696 10.6875 4.85238 10.4375 5.10267C10.3125 5.22781 10.1875 5.29038 10 5.29038C9.8125 5.29038 9.6875 5.22781 9.5625 5.10267L8.125 3.66353V10.2961C8.125 10.6715 7.875 10.9218 7.5 10.9218C7.125 10.9218 6.875 10.6715 6.875 10.2961V3.66353ZM13.125 13.4246V8.41894C13.125 8.04352 12.875 7.79323 12.5 7.79323C12.125 7.79323 11.875 8.04352 11.875 8.41894V13.4246C11.875 13.8001 11.625 14.0503 11.25 14.0503H3.75C3.375 14.0503 3.125 13.8001 3.125 13.4246V8.41894C3.125 8.04352 2.875 7.79323 2.5 7.79323C2.125 7.79323 1.875 8.04352 1.875 8.41894V13.4246C1.875 14.4883 2.6875 15.3018 3.75 15.3018H11.25C12.3125 15.3018 13.125 14.4883 13.125 13.4246Z" fill="white"/>
</mask>
<g mask="url(#mask0_3813_143590)">
<rect y="0.926758" width="15" height="15" fill="#99CF16"/>
</g>
</svg>
