<svg width="80" height="80" viewBox="0 0 80 80" fill="none" xmlns="http://www.w3.org/2000/svg">
<path fill-rule="evenodd" clip-rule="evenodd" d="M70.0001 16.6667H56.6668V13.3334C56.6668 7.66671 52.3334 3.33337 46.6667 3.33337H33.3334C27.6667 3.33337 23.3334 7.66671 23.3334 13.3334V16.6667H10.0001C8.00008 16.6667 6.66675 18 6.66675 20C6.66675 22 8.00008 23.3334 10.0001 23.3334H13.3334V66.6667C13.3334 72.3334 17.6667 76.6667 23.3334 76.6667H56.6668C62.3334 76.6667 66.6668 72.3334 66.6668 66.6667V23.3334H70.0001C72.0001 23.3334 73.3334 22 73.3334 20C73.3334 18 72.0001 16.6667 70.0001 16.6667ZM30.0001 13.3334C30.0001 11.3334 31.3334 10 33.3334 10H46.6667C48.6667 10 50.0001 11.3334 50.0001 13.3334V16.6667H30.0001V13.3334ZM56.6667 70C58.6667 70 60.0001 68.6667 60.0001 66.6667V23.3334H20.0001V66.6667C20.0001 68.6667 21.3334 70 23.3334 70H56.6667ZM36.6667 36.6667V56.6667C36.6667 58.6667 35.3334 60 33.3334 60C31.3334 60 30.0001 58.6667 30.0001 56.6667V36.6667C30.0001 34.6667 31.3334 33.3334 33.3334 33.3334C35.3334 33.3334 36.6667 34.6667 36.6667 36.6667ZM50.0001 56.6667V36.6667C50.0001 34.6667 48.6667 33.3334 46.6667 33.3334C44.6667 33.3334 43.3334 34.6667 43.3334 36.6667V56.6667C43.3334 58.6667 44.6667 60 46.6667 60C48.6667 60 50.0001 58.6667 50.0001 56.6667Z" fill="black"/>
<mask id="mask0_3813_144253" style="mask-type:alpha" maskUnits="userSpaceOnUse" x="6" y="3" width="68" height="74">
<path fill-rule="evenodd" clip-rule="evenodd" d="M70.0001 16.6667H56.6668V13.3334C56.6668 7.66671 52.3334 3.33337 46.6667 3.33337H33.3334C27.6667 3.33337 23.3334 7.66671 23.3334 13.3334V16.6667H10.0001C8.00008 16.6667 6.66675 18 6.66675 20C6.66675 22 8.00008 23.3334 10.0001 23.3334H13.3334V66.6667C13.3334 72.3334 17.6667 76.6667 23.3334 76.6667H56.6668C62.3334 76.6667 66.6668 72.3334 66.6668 66.6667V23.3334H70.0001C72.0001 23.3334 73.3334 22 73.3334 20C73.3334 18 72.0001 16.6667 70.0001 16.6667ZM30.0001 13.3334C30.0001 11.3334 31.3334 10 33.3334 10H46.6667C48.6667 10 50.0001 11.3334 50.0001 13.3334V16.6667H30.0001V13.3334ZM56.6667 70C58.6667 70 60.0001 68.6667 60.0001 66.6667V23.3334H20.0001V66.6667C20.0001 68.6667 21.3334 70 23.3334 70H56.6667ZM36.6667 36.6667V56.6667C36.6667 58.6667 35.3334 60 33.3334 60C31.3334 60 30.0001 58.6667 30.0001 56.6667V36.6667C30.0001 34.6667 31.3334 33.3334 33.3334 33.3334C35.3334 33.3334 36.6667 34.6667 36.6667 36.6667ZM50.0001 56.6667V36.6667C50.0001 34.6667 48.6667 33.3334 46.6667 33.3334C44.6667 33.3334 43.3334 34.6667 43.3334 36.6667V56.6667C43.3334 58.6667 44.6667 60 46.6667 60C48.6667 60 50.0001 58.6667 50.0001 56.6667Z" fill="white"/>
</mask>
<g mask="url(#mask0_3813_144253)">
<rect width="80" height="80" fill="#FF9F43"/>
</g>
</svg>
