<svg width="80" height="80" viewBox="0 0 80 80" fill="none" xmlns="http://www.w3.org/2000/svg">
<path fill-rule="evenodd" clip-rule="evenodd" d="M13.3865 23.3333C13.3865 14 20.749 6.66663 30.1196 6.66663C39.4901 6.66663 46.8527 14 46.8527 23.3333C46.8527 32.6666 39.4901 40 30.1196 40C20.749 40 13.3865 32.6666 13.3865 23.3333ZM60.2392 63.3333V70C60.2392 72 58.9005 73.3333 56.8926 73.3333C54.8846 73.3333 53.5459 72 53.5459 70V63.3333C53.5459 57.6666 49.1953 53.3333 43.5061 53.3333H16.7331C11.0438 53.3333 6.69324 57.6666 6.69324 63.3333V70C6.69324 72 5.35459 73.3333 3.34662 73.3333C1.33865 73.3333 0 72 0 70V63.3333C0 54 7.36257 46.6666 16.7331 46.6666H43.5061C52.8766 46.6666 60.2392 54 60.2392 63.3333ZM30.1196 33.3333C24.4303 33.3333 20.0797 29 20.0797 23.3333C20.0797 17.6666 24.4303 13.3333 30.1196 13.3333C35.8088 13.3333 40.1594 17.6666 40.1594 23.3333C40.1594 29 35.8088 33.3333 30.1196 33.3333ZM67.6017 47.3333C65.9284 47 63.9204 48 63.5858 49.6666C63.2511 51.3333 64.2551 53.3333 65.9284 53.6666C70.279 54.6666 73.291 58.6666 73.291 63.3333V70C73.291 72 74.6296 73.3333 76.6376 73.3333C78.6456 73.3333 79.9842 72 79.9842 70V63.3333C80.3189 55.6666 75.299 49 67.6017 47.3333ZM50.1993 9.66663C50.8686 7.66663 52.5419 6.66663 54.2153 7.33329C63.2511 9.33329 68.6057 18.6666 66.2631 28C64.9244 34 60.2392 38.3333 54.2153 40H53.5459C51.8726 40 50.534 39 50.1993 37.3333C49.53 35.6666 50.8686 33.6666 52.5419 33.3333C56.2232 32.3333 58.9005 29.6666 59.9045 26C61.2432 20.3333 57.8965 15 52.5419 13.6666C50.8686 13.3333 49.8646 11.3333 50.1993 9.66663Z" fill="black"/>
<mask id="mask0_3813_144089" style="mask-type:alpha" maskUnits="userSpaceOnUse" x="0" y="6" width="80" height="68">
<path fill-rule="evenodd" clip-rule="evenodd" d="M13.3865 23.3333C13.3865 14 20.749 6.66663 30.1196 6.66663C39.4901 6.66663 46.8527 14 46.8527 23.3333C46.8527 32.6666 39.4901 40 30.1196 40C20.749 40 13.3865 32.6666 13.3865 23.3333ZM60.2392 63.3333V70C60.2392 72 58.9005 73.3333 56.8926 73.3333C54.8846 73.3333 53.5459 72 53.5459 70V63.3333C53.5459 57.6666 49.1953 53.3333 43.5061 53.3333H16.7331C11.0438 53.3333 6.69324 57.6666 6.69324 63.3333V70C6.69324 72 5.35459 73.3333 3.34662 73.3333C1.33865 73.3333 0 72 0 70V63.3333C0 54 7.36257 46.6666 16.7331 46.6666H43.5061C52.8766 46.6666 60.2392 54 60.2392 63.3333ZM30.1196 33.3333C24.4303 33.3333 20.0797 29 20.0797 23.3333C20.0797 17.6666 24.4303 13.3333 30.1196 13.3333C35.8088 13.3333 40.1594 17.6666 40.1594 23.3333C40.1594 29 35.8088 33.3333 30.1196 33.3333ZM67.6017 47.3333C65.9284 47 63.9204 48 63.5858 49.6666C63.2511 51.3333 64.2551 53.3333 65.9284 53.6666C70.279 54.6666 73.291 58.6666 73.291 63.3333V70C73.291 72 74.6296 73.3333 76.6376 73.3333C78.6456 73.3333 79.9842 72 79.9842 70V63.3333C80.3189 55.6666 75.299 49 67.6017 47.3333ZM50.1993 9.66663C50.8686 7.66663 52.5419 6.66663 54.2153 7.33329C63.2511 9.33329 68.6057 18.6666 66.2631 28C64.9244 34 60.2392 38.3333 54.2153 40H53.5459C51.8726 40 50.534 39 50.1993 37.3333C49.53 35.6666 50.8686 33.6666 52.5419 33.3333C56.2232 32.3333 58.9005 29.6666 59.9045 26C61.2432 20.3333 57.8965 15 52.5419 13.6666C50.8686 13.3333 49.8646 11.3333 50.1993 9.66663Z" fill="white"/>
</mask>
<g mask="url(#mask0_3813_144089)">
<rect width="80" height="80" fill="#00BABA"/>
</g>
</svg>
