<svg width="80" height="80" viewBox="0 0 80 80" fill="none" xmlns="http://www.w3.org/2000/svg">
<path fill-rule="evenodd" clip-rule="evenodd" d="M6.66662 72C8.33329 73 9.99996 73.3333 11.6666 73.3333H68.3333C71 73.3333 73.3333 72.3333 75 70.3333C77 68.6666 78 66 78 63.3333C78 61.6666 77.6666 60 76.6666 58.3333L48.6666 11.3333C47 8.99998 45 7.33331 42.3333 6.66665C39.6666 5.99998 37 6.33331 34.6666 7.66665C33.3333 8.33331 32 9.66665 31.3333 11L2.99996 58.3333C0.33329 63 1.99996 69.3333 6.66662 72ZM8.99996 61.6666L37 14.6666C37.3333 14 37.6666 13.6666 38.3333 13.3333C40 12.6666 42 13 43 14.6666L71 61.6666C71.3333 62.3333 71.3333 62.6666 71.3333 63.3333C71.3333 64.3333 71 65 70.3333 65.6666C69.6666 66.3333 69 66.6666 68 66.6666H11.6666C11.3333 66.6666 10.6666 66.6666 10.3333 66.3333C8.66662 65.3333 7.99996 63.3333 8.99996 61.6666ZM43.3333 43.3333V30C43.3333 28 42 26.6666 40 26.6666C38 26.6666 36.6666 28 36.6666 30V43.3333C36.6666 45.3333 38 46.6666 40 46.6666C42 46.6666 43.3333 45.3333 43.3333 43.3333ZM43.3333 56.6666C43.3333 57.6666 43 58.3333 42.3333 59C41.6666 59.6666 41 60 39.6666 60C38.6666 60 38 59.6666 37.3333 59C36.6666 58.3333 36.3333 57.6666 36.3333 56.6666C36.3333 56.2761 36.4477 56 36.5424 55.7712C36.6094 55.6095 36.6666 55.4714 36.6666 55.3333C36.6666 55 37 54.6666 37.3333 54.3333C37.6666 54 38 53.6666 38.3333 53.6666C39 53.3333 39.6666 53.3333 40.3333 53.3333C40.525 53.525 40.6064 53.6065 40.7044 53.6411C40.7768 53.6666 40.8583 53.6666 41 53.6666C41.1666 53.6666 41.25 53.75 41.3333 53.8333C41.4166 53.9166 41.5 54 41.6666 54C42 54 42.3333 54.3333 42.3333 54.3333C42.6666 54.6666 43 55 43 55.3333C43.3333 55.6666 43.3333 56.3333 43.3333 56.6666Z" fill="black"/>
<mask id="mask0_3823_157008" style="mask-type:alpha" maskUnits="userSpaceOnUse" x="1" y="6" width="77" height="68">
<path fill-rule="evenodd" clip-rule="evenodd" d="M6.66662 72C8.33329 73 9.99996 73.3333 11.6666 73.3333H68.3333C71 73.3333 73.3333 72.3333 75 70.3333C77 68.6666 78 66 78 63.3333C78 61.6666 77.6666 60 76.6666 58.3333L48.6666 11.3333C47 8.99998 45 7.33331 42.3333 6.66665C39.6666 5.99998 37 6.33331 34.6666 7.66665C33.3333 8.33331 32 9.66665 31.3333 11L2.99996 58.3333C0.33329 63 1.99996 69.3333 6.66662 72ZM8.99996 61.6666L37 14.6666C37.3333 14 37.6666 13.6666 38.3333 13.3333C40 12.6666 42 13 43 14.6666L71 61.6666C71.3333 62.3333 71.3333 62.6666 71.3333 63.3333C71.3333 64.3333 71 65 70.3333 65.6666C69.6666 66.3333 69 66.6666 68 66.6666H11.6666C11.3333 66.6666 10.6666 66.6666 10.3333 66.3333C8.66662 65.3333 7.99996 63.3333 8.99996 61.6666ZM43.3333 43.3333V30C43.3333 28 42 26.6666 40 26.6666C38 26.6666 36.6666 28 36.6666 30V43.3333C36.6666 45.3333 38 46.6666 40 46.6666C42 46.6666 43.3333 45.3333 43.3333 43.3333ZM43.3333 56.6666C43.3333 57.6666 43 58.3333 42.3333 59C41.6666 59.6666 41 60 39.6666 60C38.6666 60 38 59.6666 37.3333 59C36.6666 58.3333 36.3333 57.6666 36.3333 56.6666C36.3333 56.2761 36.4477 56 36.5424 55.7712C36.6094 55.6095 36.6666 55.4714 36.6666 55.3333C36.6666 55 37 54.6666 37.3333 54.3333C37.6666 54 38 53.6666 38.3333 53.6666C39 53.3333 39.6666 53.3333 40.3333 53.3333C40.525 53.525 40.6064 53.6065 40.7044 53.6411C40.7768 53.6666 40.8583 53.6666 41 53.6666C41.1666 53.6666 41.25 53.75 41.3333 53.8333C41.4166 53.9166 41.5 54 41.6666 54C42 54 42.3333 54.3333 42.3333 54.3333C42.6666 54.6666 43 55 43 55.3333C43.3333 55.6666 43.3333 56.3333 43.3333 56.6666Z" fill="white"/>
</mask>
<g mask="url(#mask0_3823_157008)">
<rect width="80" height="80" fill="#FF9F43"/>
</g>
</svg>
