<svg width="20" height="21" viewBox="0 0 20 21" fill="none" xmlns="http://www.w3.org/2000/svg">
<path d="M15.5832 14.5394C15.9165 14.8743 15.9165 15.3765 15.5832 15.7113C15.4165 15.8787 15.2498 15.9624 14.9998 15.9624C14.7498 15.9624 14.5832 15.8787 14.4165 15.7113L9.99984 11.2749L5.58317 15.7113C5.4165 15.8787 5.24984 15.9624 4.99984 15.9624C4.74984 15.9624 4.58317 15.8787 4.4165 15.7113C4.08317 15.3765 4.08317 14.8743 4.4165 14.5394L8.83317 10.103L4.4165 5.66654C4.08317 5.33171 4.08317 4.82948 4.4165 4.49465C4.74984 4.15982 5.24984 4.15982 5.58317 4.49465L9.99984 8.93109L14.4165 4.49465C14.7498 4.15982 15.2498 4.15982 15.5832 4.49465C15.9165 4.82948 15.9165 5.33171 15.5832 5.66654L11.1665 10.103L15.5832 14.5394Z" fill="#576573"/>
</svg>
